<svg id="eJCo5xipL9f1" xmlns="http://www.w3.org/2000/svg" xmlns:xlink="http://www.w3.org/1999/xlink" viewBox="0 0 162 108" shape-rendering="geometricPrecision" text-rendering="geometricPrecision"><g transform="translate(.001004 0)"><path d="M30,93.744h-.044c-.538684-.044431-1.075671-.107469-1.61-.189-.297129-.042802-.503302-.318371-.4605-.6155s.318371-.503302.6155-.4605c.52.076,1.04.135,1.563.178.297129.011874.528374.262371.5165.5595s-.262371.528374-.5595.5165l-.022.01Zm5.37-.205c-.297129.022091-.555909-.200871-.578-.498s.200871-.555909.498-.578c.517231-.081295,1.030981-.183377,1.54-.306.139008-.032589.285274-.008371.406359.067284s.206982.196493.238641.335716c.067677.287843-.109627.576354-.397.646-.537.129-1.074.236-1.611.323l-.097.01ZM23.233,92.227c-.062457-.000254-.124389-.011422-.183-.033-.515024-.185465-1.023646-.388247-1.525-.608-.260038-.125052-.375472-.43271-.261874-.697952s.415933-.393977.685874-.292048c.483.21.983.404,1.472.587.246757.089094.393272.343178.346777.601374s-.272441.445207-.534777.442626Zm18.759-.829c-.252037.003363-.472621-.16871-.530701-.413987s.061919-.497996.288701-.608013c.467-.226.934-.479,1.39-.742.256812-.148565.585435-.060812.734.196s.060812.585435-.196.734c-.478.275-.967.538-1.45.78-.080164.039195-.168846.057757-.258.054h.022ZM16.998,89.106c-.102321.001564-.202952-.026197-.29-.08-.457-.29-.913-.597-1.36-.91-.243558-.168999-.303999-.503442-.135-.747s.503442-.303999.747-.135c.436.307.876.597,1.322.883.199259.128578.290831.372459.22544.600407s-.272322.386198-.50944.389593ZM47.77,87.562c-.157747-.001282-.30695-.071862-.408-.193-.192665-.226277-.165825-.565805.06-.759l.117-.124c.355-.306.715-.624,1.074-.957.218152-.201584.558416-.188152.76.03s.188152.558416-.03.76c-.375.345-.74.673-1.106.985l-.123.102c-.091992.091942-.214225.147374-.344.156Zm-36.326-2.69c-.133211-.000399-.261518-.050297-.36-.14-.402-.37-.8-.747-1.18-1.124-.186037-.211638-.177664-.530855.019211-.732449s.515805-.217524.731789-.036551c.376.371.763.737,1.155,1.076.106208.096686.169347.231825.175358.375325s-.045607.283446-.143358.388675c-.098593.118895-.243607.189581-.398.194Zm41.305-2.21c-.21299.000539-.406169-.124853-.492391-.319612s-.04919-.422068.094391-.579388c.355-.393.715-.79,1.074-1.2.126829-.143978.320836-.209357.508939-.171508s.341726.173173.403.355.02089.38253-.105939.526508c-.365.415-.725.818-1.074,1.21-.108438.106001-.256639.161213-.408.152v.026ZM6.724,79.723c-.165187.000834-.321566-.074405-.424-.204-.33819-.429489-.66792-.865573-.989-1.308-.083575-.116242-.117469-.260958-.094206-.402223s.101771-.267471.218206-.350777c.240413-.171029.573843-.115607.746.124.312.425.629.85.962,1.27.126454.161714.150069.38122.060904.566131s-.275626.303118-.480904.304869ZM57.303,77.34c-.207339-.000328-.396109-.119557-.485491-.306641s-.063529-.408853.066491-.570359c.338-.414.677-.828,1.015-1.253.185568-.231407.523593-.268568.755-.083s.268568.523593.083.755l-1.02,1.259c-.101234.124986-.253162.198014-.414.199ZM2.9,73.887c-.204171-.005585-.387498-.12651-.473-.312-.257-.5-.499-1-.714-1.485-.086977-.198795-.046265-.430363.103301-.587571s.37882-.2094.581699-.132429c.133.052.24.154.298.285.21.462.44.946.687,1.425.086477.167715.07895.368441-.019842.529209s-.274466.258168-.463158.256791v.021Zm58.753-2.028c-.204867-.000158-.391794-.116867-.481881-.300864s-.067633-.403221.057881-.565136l.988-1.275c.112488-.164692.306985-.253476.505107-.230572s.367231.153725.439174.339739.03487.396578-.096281.546833l-.988,1.275c-.105589.123618-.261495.192746-.424.188v.022ZM0.682,67.286c-.269597.002641-.499358-.195031-.537-.462-.075474-.551966-.123865-1.107299-.145-1.664-.012191-.199673.087411-.389622.258586-.493145s.385654-.103523.556828,0s.270777.293472.258586.493145c.018.519.063,1.036.134,1.55.019336.141776-.018495.285422-.105156.399282s-.21504.188589-.356844.207718l-.064-.032Zm65.24-.973c-.206317.002456-.395796-.113517-.487474-.298363s-.069337-.405874.057474-.568637l.984-1.28c.179493-.235549.515951-.280993.7515-.1015s.280993.515951.1015.7515l-.993,1.265c-.099052.129113-.251309.206345-.414.21v.022Zm88.49-2.96c-.049865.005194-.100135.005194-.15,0-.136907-.039699-.252412-.132202-.321064-.257127s-.084819-.27202-.044936-.408873c.134-.474.28-.99.424-1.544.035331-.138356.124217-.256991.247076-.329768s.26961-.093726.407924-.058232c.138955.03631.257574.126768.329355.251164s.090742.272361.052645.410836c-.145.538-.29,1.076-.43,1.565-.07204.223138-.280528.373735-.515.372ZM70.165,60.761c-.205593.000927-.3936-.115826-.483923-.300518s-.067042-.404774.059923-.566482l.983-1.28c.182806-.235826.522174-.278806.758-.096s.278806.522174.096.758l-.989,1.275c-.104067.118752-.255124.185686-.413.183l-.01.027ZM1.241,60.379c-.051722.007608-.104278.007608-.156,0-.136326-.042162-.250318-.136757-.316894-.262971s-.080284-.273708-.038106-.410029c.158825-.528373.337958-1.050427.537-1.565.06503-.187467.228137-.323796.424169-.35453s.393034.049138.512315.20771.141398.369996.057516.54982c-.193.49-.37.985-.537,1.474-.078997.194083-.263672.324488-.473.334l-.01.027Zm154.782-3.863c-.033768.005614-.068232.005614-.102,0-.29036-.054641-.482326-.333214-.43-.624.097-.538.188-1.044.28-1.582.02007-.202241.151003-.376515.339662-.452094s.403699-.039906.557849.092542.221797.339663.175489.537552c-.09.538-.182,1.076-.279,1.614-.058593.249742-.28564.42317-.542.414ZM74.46,55.209c-.207096.001666-.396692-.115908-.487255-.30216s-.06595-.407983.063255-.56984l1.004-1.27c.185844-.231407.524093-.268344.7555-.0825s.268344.524093.0825.7555l-.999,1.264c-.098729.12563-.248274.200769-.408.205h-.01ZM4.436,54.165c-.201306-.002474-.384455-.116929-.474909-.296785s-.073135-.395132.044909-.558215c.323-.436.666-.872,1.02-1.297.191643-.226989.531011-.255643.758-.064s.255643.531011.064.758c-.339753.401009-.665613.813587-.977,1.237-.101231.139091-.262972.221262-.435.221Zm74.408-4.417c-.206436-.002232-.393461-.122183-.481592-.308875s-.061881-.407322.067592-.568125l1.026-1.248c.184187-.232788.522212-.272187.755-.088s.272187.522212.088.755l-1.02,1.243c-.102508.136827-.264042.216665-.435.215Zm78.124-.161h-.043c-.295087-.023403-.515835-.280793-.494-.576.043-.538.075-1.076.107-1.614-.000172-.147308.060065-.288243.166655-.389919s.250209-.1552.397345-.148081c.295.018.52.27.505.565-.027644.538502-.063315,1.076562-.107,1.614.002944.143548-.051612.282318-.151529.385427s-.236901.162002-.380471.163573ZM9.28,49.13c-.229406.001994-.434742-.141967-.511072-.358311s-.006794-.457284.173072-.599689c.8-.646,1.316-.99,1.337-1.006.247976-.162924.581076-.093976.744.154s.093976.581076-.154.744-.499.334-1.25.942c-.098166.081715-.222286.125688-.35.124h.011Zm74.075-4.74c-.209462-.001326-.399035-.124325-.485599-.315068s-.054319-.414409.082599-.572932c.35-.408.704-.817,1.074-1.22.196061-.222571.535429-.244061.758-.048s.244061.535429.048.758c-.355.403-.71.806-1.074,1.215-.104294.119022-.255777.185982-.414.183h.01Zm73.742-1.797c-.284517.000506-.520046-.220988-.537-.505-.031317-.538556-.070655-1.076616-.118-1.614-.028898-.197906.053957-.395577.215333-.513728s.374839-.137431.554773-.050105.296866.266952.303894.466833c.048.538.091,1.076.118,1.614c0,.285-.221.52-.505.538l-.032.064ZM88.033,39.177c-.213976-.000008-.407527-.127049-.492654-.323362s-.045583-.424431.100654-.580638c.365-.398.735-.79,1.106-1.178.203517-.215115.542885-.224517.758-.021s.224517.542885.021.758l-1.074,1.173c-.112216.122234-.274637.185726-.44.172h.02Zm68.092-3.502c-.253024.00727-.476768-.163142-.537-.409-.118072-.515604-.254156-1.026917-.408-1.533-.059334-.275208.103131-.549723.372933-.63014s.556048.060356.657067.32314c.151.538.296,1.05.425,1.587.033699.139115.01068.285922-.063983.408045s-.194835.209534-.334017.242955l-.112.01ZM92.904,34.163c-.217972-.000164-.414221-.132071-.496684-.333842s-.034778-.433373.120684-.586158l1.165-1.13c.209868-.210697.550803-.211368.7615-.0015s.211368.550803.0015.7615c-.387.365-.768.741-1.155,1.118-.107473.11631-.260804.179253-.419.172h.022Zm5.14-4.745c-.223907.000514-.424633-.137956-.503667-.347451s-.019785-.446042.148667-.593549l1.235-1.076c.147908-.123793.350623-.159274.531785-.093078s.313246.224012.3465.414-.037377.383285-.185285.507078c-.408.34-.817.689-1.225,1.039-.099472.095694-.231972.14941-.37.15h.021Zm55.197-.575c-.247-.468-.505-.931-.779-1.378-.112617-.164372-.124965-.377587-.032075-.553861s.275745-.286624.474996-.286653.382137.110268.475079.286514c.285.463.537.947.811,1.431.088492.167312.082741.36878-.01515.530772s-.273578.260768-.46285.260228c-.1989-.001791-.380518-.113378-.472-.29ZM103.5,25.055c-.233866.001626-.442097-.14775-.515507-.369802s.004755-.466108.193507-.604198c.44-.322.88-.634,1.32-.946.157346-.111162.362182-.129519.536786-.048106s.292218.25012.308214.442106c.016564.191472-.069885.377318-.227.488l-1.3.93c-.097137.073331-.216339.111419-.338.108h.022Zm46.132-1.56c-.143403-.000641-.280592-.058614-.381-.161-.359-.359-.74-.717-1.144-1.076-.222847-.195785-.244785-.535153-.049-.758s.535153-.244785.758-.049c.408.36.81.742,1.197,1.135.208328.210114.208328.548886,0,.759-.107576.10395-.253638.158315-.403.15h.022Zm-40.279-2.28c-.243345.001677-.4574-.160495-.521648-.395212s.037372-.483298.247648-.605788c.473-.275.946-.538,1.418-.797.168061-.097048.375274-.09645.542772.001568s.269517.278376.267228.472432c-.000906.193556-.104963.371938-.273.468-.467.253-.929.538-1.39.785-.103558.061287-.224727.085943-.344.07h.053Zm34.737-1.894c-.090733.000316-.179869-.023869-.258-.07-.451-.248-.924-.49-1.407-.716-.268963-.127578-.383578-.449037-.256-.718s.449037-.383578.718-.256c.499.237.988.49,1.46.748.217675.116866.327775.366967.266963.606429s-.276903.406726-.523963.405571ZM115.6,18.126c-.259945.003294-.48492-.180087-.534105-.435357s.091546-.509115.334105-.602643c.505-.204,1.01-.398,1.52-.581.27918-.101068.587432.04332.6885.3225s-.04332.587432-.3225.6885c-.495.178-.989.366-1.483.57-.078189.031951-.162823.044972-.247.038h.043Zm22.045-1.452c-.051868.005233-.104132.005233-.156,0-.505-.15-1.02-.29-1.53-.41-.280881-.083279-.448072-.371164-.381207-.656399s.344577-.468825.633207-.418601c.537.129,1.074.269,1.611.425.297129.041421.504421.315871.463.613s-.315871.504421-.613.463l-.027-.016Zm-15.456-.597c-.285119.016436-.533223-.19317-.564645-.477028s.164834-.542652.446645-.588972c.537-.107,1.074-.21,1.61-.29.192335-.03035.386196.044607.508085.196452s.153144.357329.081915.538548c-.070364.180595-.231499.310113-.423.34-.537.082-1.036.178-1.557.286-.034066.003121-.068402.001438-.102-.005Zm8.555-.603h-.038c-.525767-.03283-1.052257-.052835-1.579-.06-.287843-.012418-.514811-.24939-.514811-.5375s.226968-.525082.514811-.5375c.537,0,1.074.027,1.638.06.290054.017705.51363.262543.504984.553008s-.24639.521572-.536984.521992h.01Z" fill="#e6e6e6"/><path d="M119.847,100.221h-61.701L70.332,0.793h55.025l5.747,7.601Z" fill="#39475f"/><path d="M113.172,100.221h-61.707L63.651,0.793h61.706Z" fill="#61728d"/><path d="M110.132,81.354h-51.556L67.367,9.659h51.557Z" fill="#181f27"/><path d="M92.743,50.055l14.897.177-.29,2.308-14.607-.252Z" fill="#1e252e"/><path d="M51.465,100.221l7.422,6.864l60.037.915.923-7.779Z" fill="#39475f"/><g id="eJCo5xipL9f9" transform="matrix(.224136 0 0 0.224136 71.331982 32.878637)"><path d="M99.096,29.058c0,0,2.572.183,3.888,5.03s.865,18.377.865,18.377l-11.096-.177c0,0-5.537-20.137,6.343-23.23Z" fill="#2d394b"/><path d="M99.096,29.058c0,0-5.838,2.103-3.803,18.581c1.493,12.073-3.55,28.056-11.004,28.25-7.454.193-21.202-.463-21.202-.463s7.159-18.56,5.676-34.145c-.227757-2.181956.032875-4.387251.763-6.456.87-2.373,2.487-4.842,5.494-5.245c6.004-.818,24.076-.522,24.076-.522Z" fill="#bad6fa"/><path d="M58.957,76.63l26.342-.537c0,0-4.017-3.992-4.27-14.154l-36.234.538c.620994,2.621513,1.575789,5.152512,2.841,7.531c2.227362,4.161012,6.601342,6.720099,11.32,6.623Z" fill="#546f8d"/><path d="M73.731,35.75c-.297129.010493-.546507-.221871-.557-.519s.221871-.546507.519-.557c.113,0,11.343-.828,17.363-.29.297129.02651.51651.288871.49.586s-.288871.51651-.586.49c-5.908-.538-17.079.274-17.186.285l-.043.005Zm-.891,7.279c-.297129.010493-.546507-.221871-.557-.519s.221871-.546507.519-.557c.113,0,11.342-.828,17.363-.29.297129.026786.516286.289371.4895.5865s-.289371.516286-.5865.4895c-5.907-.538-17.073.28-17.185.285l-.043.005Zm-.102,7.564c-.297129.011874-.547626-.219371-.5595-.5165s.219371-.547626.5165-.5595c.112,0,11.347-.829,17.362-.29.288261.036407.49604.294377.470196.583776s-.276045.50647-.566196.491224c-5.908-.538-17.073.28-17.186.286l-.037.005Zm-.715,7.564c-.297129.010217-.546283-.222371-.5565-.5195s.222371-.546283.5195-.5565c.112,0,11.342-.829,17.362-.285.297129.02651.51651.288871.49.586s-.288871.51651-.586.49c-5.908-.538-17.073.28-17.186.285h-.043Z" fill="#fff"/></g><path d="M78.21,14.834l-.918,6.041h26.621l.806-6.041Z" fill="#2d394b"/><ellipse id="eJCo5xipL9f15" rx="14.812" ry="14.837" transform="matrix(.447442 0 0 0.447442 118.7295 15.63)" fill="#fc7614"/><path d="M85.54,86.19c-2.872-2.517-7.416-2.022-9.446,1.222-.512455.788538-.789928,1.706627-.8,2.647c0,3.98,2.744,6.59,8.227,5.492c4.184-.839,5.779-6.073,2.02-9.36Z" opacity="0.48" fill="#fff"/><g id="eJCo5xipL9f17" transform="matrix(-.528416 0.01601-.01601-.528416 105.250797 80.28202)"><path d="M5.42,32.843L45.778,0l21.18,26.119L26.603,58.96Z" fill="#fc7614"/><path d="M27.49,21.931L45.56,7.226l3.497,4.313-18.07,14.706Z" fill="#fff"/><path d="M25.272,45.175L30.61,40.83c.570815-.464348,1.302832-.682687,2.034751-.606906s1.403676.439461,1.867249,1.010906c.967301,1.191533.786494,2.941421-.404,3.91L28.77,49.488c-.570874.464661-1.303118.68319-2.035281.607404s-1.404123-.439664-1.867719-1.011404c-.967066-1.191796-.785808-2.941717.405-3.91Zm12.058-9.81L54.22,21.622c.570815-.464348,1.302832-.682687,2.034751-.606906s1.403676.439461,1.867249,1.010906c.966388,1.19164.785163,2.940794-.405,3.909L40.83,39.679c-.570874.464661-1.303118.68319-2.035281.607404s-1.404123-.439664-1.867719-1.011404c-.967066-1.191796-.785808-2.941717.405-3.91Z" opacity="0.46" fill="#fff"/><ellipse rx="3.673" ry="3.68" transform="translate(17.937 33.636)" opacity="0.3" fill="#fff"/><ellipse rx="3.673" ry="3.68" transform="translate(21.664 30.284)" opacity="0.3" fill="#fff"/></g></g><script><![CDATA[!function(t,n){"object"==typeof exports&&"undefined"!=typeof module?module.exports=n():"function"==typeof define&&define.amd?define(n):((t="undefined"!=typeof globalThis?globalThis:t||self).__SVGATOR_PLAYER__=t.__SVGATOR_PLAYER__||{},t.__SVGATOR_PLAYER__["5c7f360c"]=n())}(this,(function(){"use strict";function t(t,n){var e=Object.keys(t);if(Object.getOwnPropertySymbols){var r=Object.getOwnPropertySymbols(t);n&&(r=r.filter((function(n){return Object.getOwnPropertyDescriptor(t,n).enumerable}))),e.push.apply(e,r)}return e}function n(n){for(var e=1;e<arguments.length;e++){var r=null!=arguments[e]?arguments[e]:{};e%2?t(Object(r),!0).forEach((function(t){o(n,t,r[t])})):Object.getOwnPropertyDescriptors?Object.defineProperties(n,Object.getOwnPropertyDescriptors(r)):t(Object(r)).forEach((function(t){Object.defineProperty(n,t,Object.getOwnPropertyDescriptor(r,t))}))}return n}function e(t){return(e="function"==typeof Symbol&&"symbol"==typeof Symbol.iterator?function(t){return typeof t}:function(t){return t&&"function"==typeof Symbol&&t.constructor===Symbol&&t!==Symbol.prototype?"symbol":typeof t})(t)}function r(t,n){if(!(t instanceof n))throw new TypeError("Cannot call a class as a function")}function i(t,n){for(var e=0;e<n.length;e++){var r=n[e];r.enumerable=r.enumerable||!1,r.configurable=!0,"value"in r&&(r.writable=!0),Object.defineProperty(t,r.key,r)}}function u(t,n,e){return n&&i(t.prototype,n),e&&i(t,e),t}function o(t,n,e){return n in t?Object.defineProperty(t,n,{value:e,enumerable:!0,configurable:!0,writable:!0}):t[n]=e,t}function a(t){return(a=Object.setPrototypeOf?Object.getPrototypeOf:function(t){return t.__proto__||Object.getPrototypeOf(t)})(t)}function l(t,n){return(l=Object.setPrototypeOf||function(t,n){return t.__proto__=n,t})(t,n)}function s(){if("undefined"==typeof Reflect||!Reflect.construct)return!1;if(Reflect.construct.sham)return!1;if("function"==typeof Proxy)return!0;try{return Boolean.prototype.valueOf.call(Reflect.construct(Boolean,[],(function(){}))),!0}catch(t){return!1}}function f(t,n,e){return(f=s()?Reflect.construct:function(t,n,e){var r=[null];r.push.apply(r,n);var i=new(Function.bind.apply(t,r));return e&&l(i,e.prototype),i}).apply(null,arguments)}function c(t,n){if(n&&("object"==typeof n||"function"==typeof n))return n;if(void 0!==n)throw new TypeError("Derived constructors may only return object or undefined");return function(t){if(void 0===t)throw new ReferenceError("this hasn't been initialised - super() hasn't been called");return t}(t)}function h(t,n,e){return(h="undefined"!=typeof Reflect&&Reflect.get?Reflect.get:function(t,n,e){var r=function(t,n){for(;!Object.prototype.hasOwnProperty.call(t,n)&&null!==(t=a(t)););return t}(t,n);if(r){var i=Object.getOwnPropertyDescriptor(r,n);return i.get?i.get.call(e):i.value}})(t,n,e||t)}function v(t){return function(t){if(Array.isArray(t))return y(t)}(t)||function(t){if("undefined"!=typeof Symbol&&null!=t[Symbol.iterator]||null!=t["@@iterator"])return Array.from(t)}(t)||function(t,n){if(!t)return;if("string"==typeof t)return y(t,n);var e=Object.prototype.toString.call(t).slice(8,-1);"Object"===e&&t.constructor&&(e=t.constructor.name);if("Map"===e||"Set"===e)return Array.from(t);if("Arguments"===e||/^(?:Ui|I)nt(?:8|16|32)(?:Clamped)?Array$/.test(e))return y(t,n)}(t)||function(){throw new TypeError("Invalid attempt to spread non-iterable instance.\nIn order to be iterable, non-array objects must have a [Symbol.iterator]() method.")}()}function y(t,n){(null==n||n>t.length)&&(n=t.length);for(var e=0,r=new Array(n);e<n;e++)r[e]=t[e];return r}Number.isInteger||(Number.isInteger=function(t){return"number"==typeof t&&isFinite(t)&&Math.floor(t)===t}),Number.EPSILON||(Number.EPSILON=2220446049250313e-31);var g=d(Math.pow(10,-6));function d(t){var n=arguments.length>1&&void 0!==arguments[1]?arguments[1]:6;if(Number.isInteger(t))return t;var e=Math.pow(10,n);return Math.round((+t+Number.EPSILON)*e)/e}function p(t,n){var e=arguments.length>2&&void 0!==arguments[2]?arguments[2]:g;return Math.abs(t-n)<e}var m=Math.PI/180;function b(t){return t}function w(t,n,e){var r=1-e;return 3*e*r*(t*r+n*e)+e*e*e}function x(){var t=arguments.length>0&&void 0!==arguments[0]?arguments[0]:0,n=arguments.length>1&&void 0!==arguments[1]?arguments[1]:0,e=arguments.length>2&&void 0!==arguments[2]?arguments[2]:1,r=arguments.length>3&&void 0!==arguments[3]?arguments[3]:1;return t<0||t>1||e<0||e>1?null:p(t,n)&&p(e,r)?b:function(i){if(i<=0)return t>0?i*n/t:0===n&&e>0?i*r/e:0;if(i>=1)return e<1?1+(i-1)*(r-1)/(e-1):1===e&&t<1?1+(i-1)*(n-1)/(t-1):1;for(var u,o=0,a=1;o<a;){var l=w(t,e,u=(o+a)/2);if(p(i,l))break;l<i?o=u:a=u}return w(n,r,u)}}function A(){return 1}function k(t){return 1===t?1:0}function _(){var t=arguments.length>0&&void 0!==arguments[0]?arguments[0]:1,n=arguments.length>1&&void 0!==arguments[1]?arguments[1]:0;if(1===t){if(0===n)return k;if(1===n)return A}var e=1/t;return function(t){return t>=1?1:(t+=n*e)-t%e}}var S=Math.sin,O=Math.cos,j=Math.acos,M=Math.asin,P=Math.tan,E=Math.atan2,I=Math.PI/180,R=180/Math.PI,F=Math.sqrt,N=function(){function t(){var n=arguments.length>0&&void 0!==arguments[0]?arguments[0]:1,e=arguments.length>1&&void 0!==arguments[1]?arguments[1]:0,i=arguments.length>2&&void 0!==arguments[2]?arguments[2]:0,u=arguments.length>3&&void 0!==arguments[3]?arguments[3]:1,o=arguments.length>4&&void 0!==arguments[4]?arguments[4]:0,a=arguments.length>5&&void 0!==arguments[5]?arguments[5]:0;r(this,t),this.m=[n,e,i,u,o,a],this.i=null,this.w=null,this.s=null}return u(t,[{key:"determinant",get:function(){var t=this.m;return t[0]*t[3]-t[1]*t[2]}},{key:"isIdentity",get:function(){if(null===this.i){var t=this.m;this.i=1===t[0]&&0===t[1]&&0===t[2]&&1===t[3]&&0===t[4]&&0===t[5]}return this.i}},{key:"point",value:function(t,n){var e=this.m;return{x:e[0]*t+e[2]*n+e[4],y:e[1]*t+e[3]*n+e[5]}}},{key:"translateSelf",value:function(){var t=arguments.length>0&&void 0!==arguments[0]?arguments[0]:0,n=arguments.length>1&&void 0!==arguments[1]?arguments[1]:0;if(!t&&!n)return this;var e=this.m;return e[4]+=e[0]*t+e[2]*n,e[5]+=e[1]*t+e[3]*n,this.w=this.s=this.i=null,this}},{key:"rotateSelf",value:function(){var t=arguments.length>0&&void 0!==arguments[0]?arguments[0]:0;if(t%=360){var n=S(t*=I),e=O(t),r=this.m,i=r[0],u=r[1];r[0]=i*e+r[2]*n,r[1]=u*e+r[3]*n,r[2]=r[2]*e-i*n,r[3]=r[3]*e-u*n,this.w=this.s=this.i=null}return this}},{key:"scaleSelf",value:function(){var t=arguments.length>0&&void 0!==arguments[0]?arguments[0]:1,n=arguments.length>1&&void 0!==arguments[1]?arguments[1]:1;if(1!==t||1!==n){var e=this.m;e[0]*=t,e[1]*=t,e[2]*=n,e[3]*=n,this.w=this.s=this.i=null}return this}},{key:"skewSelf",value:function(t,n){if(n%=360,(t%=360)||n){var e=this.m,r=e[0],i=e[1],u=e[2],o=e[3];t&&(t=P(t*I),e[2]+=r*t,e[3]+=i*t),n&&(n=P(n*I),e[0]+=u*n,e[1]+=o*n),this.w=this.s=this.i=null}return this}},{key:"resetSelf",value:function(){var t=arguments.length>0&&void 0!==arguments[0]?arguments[0]:1,n=arguments.length>1&&void 0!==arguments[1]?arguments[1]:0,e=arguments.length>2&&void 0!==arguments[2]?arguments[2]:0,r=arguments.length>3&&void 0!==arguments[3]?arguments[3]:1,i=arguments.length>4&&void 0!==arguments[4]?arguments[4]:0,u=arguments.length>5&&void 0!==arguments[5]?arguments[5]:0,o=this.m;return o[0]=t,o[1]=n,o[2]=e,o[3]=r,o[4]=i,o[5]=u,this.w=this.s=this.i=null,this}},{key:"recomposeSelf",value:function(){var t=arguments.length>0&&void 0!==arguments[0]?arguments[0]:null,n=arguments.length>1&&void 0!==arguments[1]?arguments[1]:null,e=arguments.length>2&&void 0!==arguments[2]?arguments[2]:null,r=arguments.length>3&&void 0!==arguments[3]?arguments[3]:null,i=arguments.length>4&&void 0!==arguments[4]?arguments[4]:null;return this.isIdentity||this.resetSelf(),t&&(t.x||t.y)&&this.translateSelf(t.x,t.y),n&&this.rotateSelf(n),e&&(e.x&&this.skewSelf(e.x,0),e.y&&this.skewSelf(0,e.y)),!r||1===r.x&&1===r.y||this.scaleSelf(r.x,r.y),i&&(i.x||i.y)&&this.translateSelf(i.x,i.y),this}},{key:"decompose",value:function(){var t=arguments.length>0&&void 0!==arguments[0]?arguments[0]:0,n=arguments.length>1&&void 0!==arguments[1]?arguments[1]:0,e=this.m,r=e[0]*e[0]+e[1]*e[1],i=[[e[0],e[1]],[e[2],e[3]]],u=F(r);if(0===u)return{origin:{x:d(e[4]),y:d(e[5])},translate:{x:d(t),y:d(n)},scale:{x:0,y:0},skew:{x:0,y:0},rotate:0};i[0][0]/=u,i[0][1]/=u;var o=e[0]*e[3]-e[1]*e[2]<0;o&&(u=-u);var a=i[0][0]*i[1][0]+i[0][1]*i[1][1];i[1][0]-=i[0][0]*a,i[1][1]-=i[0][1]*a;var l=F(i[1][0]*i[1][0]+i[1][1]*i[1][1]);if(0===l)return{origin:{x:d(e[4]),y:d(e[5])},translate:{x:d(t),y:d(n)},scale:{x:d(u),y:0},skew:{x:0,y:0},rotate:0};i[1][0]/=l,i[1][1]/=l,a/=l;var s=0;return i[1][1]<0?(s=j(i[1][1])*R,i[0][1]<0&&(s=360-s)):s=M(i[0][1])*R,o&&(s=-s),a=E(a,F(i[0][0]*i[0][0]+i[0][1]*i[0][1]))*R,o&&(a=-a),{origin:{x:d(e[4]),y:d(e[5])},translate:{x:d(t),y:d(n)},scale:{x:d(u),y:d(l)},skew:{x:d(a),y:0},rotate:d(s)}}},{key:"clone",value:function(){var t=this.m;return new this.constructor(t[0],t[1],t[2],t[3],t[4],t[5])}},{key:"toString",value:function(){var t=arguments.length>0&&void 0!==arguments[0]?arguments[0]:" ";if(null===this.s){var n=this.m.map((function(t){return d(t)}));1===n[0]&&0===n[1]&&0===n[2]&&1===n[3]?this.s="translate("+n[4]+t+n[5]+")":this.s="matrix("+n.join(t)+")"}return this.s}}],[{key:"create",value:function(t){return t?Array.isArray(t)?f(this,v(t)):t instanceof this?t.clone():(new this).recomposeSelf(t.origin,t.rotate,t.skew,t.scale,t.translate):new this}}]),t}();function T(t,n,e){return t>=.5?e:n}function q(t,n,e){return 0===t||n===e?n:t*(e-n)+n}function B(t,n,e){var r=q(t,n,e);return r<=0?0:r}function L(t,n,e){var r=q(t,n,e);return r<=0?0:r>=1?1:r}function C(t,n,e){return 0===t?n:1===t?e:{x:q(t,n.x,e.x),y:q(t,n.y,e.y)}}function D(t,n,e){var r=function(t,n,e){return Math.round(q(t,n,e))}(t,n,e);return r<=0?0:r>=255?255:r}function z(t,n,e){return 0===t?n:1===t?e:{r:D(t,n.r,e.r),g:D(t,n.g,e.g),b:D(t,n.b,e.b),a:q(t,null==n.a?1:n.a,null==e.a?1:e.a)}}function V(t,n){for(var e=[],r=0;r<t;r++)e.push(n);return e}function G(t,n){if(--n<=0)return t;var e=(t=Object.assign([],t)).length;do{for(var r=0;r<e;r++)t.push(t[r])}while(--n>0);return t}var Y,$=function(){function t(n){r(this,t),this.list=n,this.length=n.length}return u(t,[{key:"setAttribute",value:function(t,n){for(var e=this.list,r=0;r<this.length;r++)e[r].setAttribute(t,n)}},{key:"removeAttribute",value:function(t){for(var n=this.list,e=0;e<this.length;e++)n[e].removeAttribute(t)}},{key:"style",value:function(t,n){for(var e=this.list,r=0;r<this.length;r++)e[r].style[t]=n}}]),t}(),U=/-./g,Q=function(t,n){return n.toUpperCase()};function H(t){return"function"==typeof t?t:T}function J(t){return t?"function"==typeof t?t:Array.isArray(t)?function(t){var n=arguments.length>1&&void 0!==arguments[1]?arguments[1]:b;if(!Array.isArray(t))return n;switch(t.length){case 1:return _(t[0])||n;case 2:return _(t[0],t[1])||n;case 4:return x(t[0],t[1],t[2],t[3])||n}return n}(t,null):function(t,n){var e=arguments.length>2&&void 0!==arguments[2]?arguments[2]:b;switch(t){case"linear":return b;case"steps":return _(n.steps||1,n.jump||0)||e;case"bezier":case"cubic-bezier":return x(n.x1||0,n.y1||0,n.x2||0,n.y2||0)||e}return e}(t.type,t.value,null):null}function Z(t,n,e){var r=arguments.length>3&&void 0!==arguments[3]&&arguments[3],i=n.length-1;if(t<=n[0].t)return r?[0,0,n[0].v]:n[0].v;if(t>=n[i].t)return r?[i,1,n[i].v]:n[i].v;var u,o=n[0],a=null;for(u=1;u<=i;u++){if(!(t>n[u].t)){a=n[u];break}o=n[u]}return null==a?r?[i,1,n[i].v]:n[i].v:o.t===a.t?r?[u,1,a.v]:a.v:(t=(t-o.t)/(a.t-o.t),o.e&&(t=o.e(t)),r?[u,t,e(t,o.v,a.v)]:e(t,o.v,a.v))}function K(t,n){var e=arguments.length>2&&void 0!==arguments[2]?arguments[2]:null;return t&&t.length?"function"!=typeof n?null:("function"!=typeof e&&(e=null),function(r){var i=Z(r,t,n);return null!=i&&e&&(i=e(i)),i}):null}function W(t,n){return t.t-n.t}function X(t,n,r,i,u){var o,a="@"===r[0],l="#"===r[0],s=Y[r],f=T;switch(a?(o=r.substr(1),r=o.replace(U,Q)):l&&(r=r.substr(1)),e(s)){case"function":if(f=s(i,u,Z,J,r,a,n,t),l)return f;break;case"string":f=K(i,H(s));break;case"object":if((f=K(i,H(s.i),s.f))&&"function"==typeof s.u)return s.u(n,f,r,a,t)}return f?function(t,n,e){if(arguments.length>3&&void 0!==arguments[3]&&arguments[3])return t instanceof $?function(r){return t.style(n,e(r))}:function(r){return t.style[n]=e(r)};if(Array.isArray(n)){var r=n.length;return function(i){var u=e(i);if(null==u)for(var o=0;o<r;o++)t[o].removeAttribute(n);else for(var a=0;a<r;a++)t[a].setAttribute(n,u)}}return function(r){var i=e(r);null==i?t.removeAttribute(n):t.setAttribute(n,i)}}(n,r,f,a):null}function tt(t,n,r,i){if(!i||"object"!==e(i))return null;var u=null,o=null;return Array.isArray(i)?o=function(t){if(!t||!t.length)return null;for(var n=0;n<t.length;n++)t[n].e&&(t[n].e=J(t[n].e));return t.sort(W)}(i):(o=i.keys,u=i.data||null),o?X(t,n,r,o,u):null}function nt(t,n,e){if(!e)return null;var r=[];for(var i in e)if(e.hasOwnProperty(i)){var u=tt(t,n,i,e[i]);u&&r.push(u)}return r.length?r:null}function et(t,n){if(!n.settings.duration||n.settings.duration<0)return null;var e,r,i,u,o,a=function(t,n){if(!n)return null;var e=[];if(Array.isArray(n))for(var r=n.length,i=0;i<r;i++){var u=n[i];if(2===u.length){var o=null;if("string"==typeof u[0])o=t.getElementById(u[0]);else if(Array.isArray(u[0])){o=[];for(var a=0;a<u[0].length;a++)if("string"==typeof u[0][a]){var l=t.getElementById(u[0][a]);l&&o.push(l)}o=o.length?1===o.length?o[0]:new $(o):null}if(o){var s=nt(t,o,u[1]);s&&(e=e.concat(s))}}}else for(var f in n)if(n.hasOwnProperty(f)){var c=t.getElementById(f);if(c){var h=nt(t,c,n[f]);h&&(e=e.concat(h))}}return e.length?e:null}(t,n.elements);return a?(e=a,r=n.settings,i=r.duration,u=e.length,o=null,function(t,n){var a=r.iterations||1/0,l=(r.alternate&&a%2==0)^r.direction>0?i:0,s=t%i,f=1+(t-s)/i;n*=r.direction,r.alternate&&f%2==0&&(n=-n);var c=!1;if(f>a)s=l,c=!0,-1===r.fill&&(s=r.direction>0?0:i);else if(n<0&&(s=i-s),s===o)return!1;o=s;for(var h=0;h<u;h++)e[h](s);return c}):null}function rt(t,n){if(Y=n,!t||!t.root||!Array.isArray(t.animations))return null;var e=function(t){for(var n=document.getElementsByTagName("svg"),e=0;e<n.length;e++)if(n[e].id===t.root&&!n[e].svgatorAnimation)return n[e].svgatorAnimation=!0,n[e];return null}(t);if(!e)return null;var r=t.animations.map((function(t){return et(e,t)})).filter((function(t){return!!t}));return r.length?{svg:e,animations:r,animationSettings:t.animationSettings,options:t.options||void 0}:null}function it(t){return+("0x"+(t.replace(/[^0-9a-fA-F]+/g,"")||27))}function ut(t,n,e){return!t||!e||n>t.length?t:t.substring(0,n)+ut(t.substring(n+1),e,e)}function ot(t){var n=arguments.length>1&&void 0!==arguments[1]?arguments[1]:27;return!t||t%n?t%n:ot(t/n,n)}function at(t,n,e){if(t&&t.length){var r=it(e),i=it(n),u=ot(r)+5,o=ut(t,ot(r,5),u);return o=o.replace(/\x7c$/g,"==").replace(/\x2f$/g,"="),o=function(t,n,e){var r=+("0x"+t.substring(0,4));t=t.substring(4);for(var i=n%r+e%27,u=[],o=0;o<t.length;o+=2)if("|"!==t[o]){var a=+("0x"+t[o]+t[o+1])-i;u.push(a)}else{var l=+("0x"+t.substring(o+1,o+1+4))-i;o+=3,u.push(l)}return String.fromCharCode.apply(String,u)}(o=(o=atob(o)).replace(/[\x41-\x5A]/g,""),i,r),o=JSON.parse(o)}}var lt=[{key:"alternate",def:!1},{key:"fill",def:1},{key:"iterations",def:0},{key:"direction",def:1},{key:"speed",def:1},{key:"fps",def:100}],st=function(){function t(n,e){var i=this,u=arguments.length>2&&void 0!==arguments[2]?arguments[2]:null;r(this,t),this._id=0,this._running=!1,this._rollingBack=!1,this._animations=n,this._settings=e,(!u||u<"2022-05-02")&&delete this._settings.speed,lt.forEach((function(t){i._settings[t.key]=i._settings[t.key]||t.def})),this.duration=e.duration,this.offset=e.offset||0,this.rollbackStartOffset=0}return u(t,[{key:"alternate",get:function(){return this._settings.alternate}},{key:"fill",get:function(){return this._settings.fill}},{key:"iterations",get:function(){return this._settings.iterations}},{key:"direction",get:function(){return this._settings.direction}},{key:"speed",get:function(){return this._settings.speed}},{key:"fps",get:function(){return this._settings.fps}},{key:"maxFiniteDuration",get:function(){return this.iterations>0?this.iterations*this.duration:this.duration}},{key:"_apply",value:function(t){for(var n=arguments.length>1&&void 0!==arguments[1]?arguments[1]:{},e=this._animations,r=e.length,i=0,u=0;u<r;u++)n[u]?i++:(n[u]=e[u](t,1),n[u]&&i++);return i}},{key:"_rollback",value:function(t){var n=this,e=1/0,r=null;this.rollbackStartOffset=t,this._rollingBack=!0,this._running=!0;this._id=window.requestAnimationFrame((function i(u){if(n._rollingBack){null==r&&(r=u);var o=Math.round(t-(u-r)*n.speed);if(o>n.duration&&e!==1/0){var a=!!n.alternate&&o/n.duration%2>1,l=o%n.duration;o=(l+=a?n.duration:0)||n.duration}var s=(n.fps?1e3/n.fps:0)*n.speed,f=Math.max(0,o);f<e-s&&(n.offset=f,e=f,n._apply(f));var c=n.iterations>0&&-1===n.fill&&o>=n.maxFiniteDuration;(o<=0||n.offset<o||c)&&n.stop(),n._id=window.requestAnimationFrame(i)}}))}},{key:"_start",value:function(){var t=this,n=arguments.length>0&&void 0!==arguments[0]?arguments[0]:0,e=-1/0,r=null,i={};this._running=!0;var u=function u(o){null==r&&(r=o);var a=Math.round((o-r)*t.speed+n),l=(t.fps?1e3/t.fps:0)*t.speed;if(a>e+l&&!t._rollingBack&&(t.offset=a,e=a,t._apply(a,i)===t._animations.length))return void t.pause(!0);t._id=window.requestAnimationFrame(u)};this._id=window.requestAnimationFrame(u)}},{key:"_pause",value:function(){this._id&&window.cancelAnimationFrame(this._id),this._running=!1}},{key:"play",value:function(){if(!this._running)return this._rollingBack?this._rollback(this.offset):this._start(this.offset)}},{key:"stop",value:function(){this._pause(),this.offset=0,this.rollbackStartOffset=0,this._rollingBack=!1,this._apply(0)}},{key:"reachedToEnd",value:function(){return this.iterations>0&&this.offset>=this.iterations*this.duration}},{key:"restart",value:function(){var t=arguments.length>0&&void 0!==arguments[0]&&arguments[0];this.stop(t),this.play(t)}},{key:"pause",value:function(){this._pause()}},{key:"reverse",value:function(){this.direction=-this.direction}}],[{key:"build",value:function(t,n){delete t.animationSettings,t.options=at(t.options,t.root,"5c7f360c"),t.animations.map((function(n){n.settings=at(n.s,t.root,"5c7f360c"),delete n.s,t.animationSettings||(t.animationSettings=n.settings)}));var e=t.version;if(!(t=rt(t,n)))return null;var r=t.options||{},i=new this(t.animations,t.animationSettings,e);return{el:t.svg,options:r,player:i}}},{key:"push",value:function(t){return this.build(t)}},{key:"init",value:function(){var t=this,n=window.__SVGATOR_PLAYER__&&window.__SVGATOR_PLAYER__["5c7f360c"];Array.isArray(n)&&n.splice(0).forEach((function(n){return t.build(n)}))}}]),t}();function ft(t){return d(t)+""}function ct(t){var n=arguments.length>1&&void 0!==arguments[1]?arguments[1]:" ";return t&&t.length?t.map(ft).join(n):""}function ht(t){if(!t)return"transparent";if(null==t.a||t.a>=1){var n=function(t){return 1===(t=parseInt(t).toString(16)).length?"0"+t:t},e=function(t){return t.charAt(0)===t.charAt(1)},r=n(t.r),i=n(t.g),u=n(t.b);return e(r)&&e(i)&&e(u)&&(r=r.charAt(0),i=i.charAt(0),u=u.charAt(0)),"#"+r+i+u}return"rgba("+t.r+","+t.g+","+t.b+","+t.a+")"}function vt(t){return t?"url(#"+t+")":"none"}!function(){for(var t=0,n=["ms","moz","webkit","o"],e=0;e<n.length&&!window.requestAnimationFrame;++e)window.requestAnimationFrame=window[n[e]+"RequestAnimationFrame"],window.cancelAnimationFrame=window[n[e]+"CancelAnimationFrame"]||window[n[e]+"CancelRequestAnimationFrame"];window.requestAnimationFrame||(window.requestAnimationFrame=function(n){var e=Date.now(),r=Math.max(0,16-(e-t)),i=window.setTimeout((function(){n(e+r)}),r);return t=e+r,i},window.cancelAnimationFrame=window.clearTimeout)}();var yt={f:null,i:function(t,n,e){return 0===t?n:1===t?e:{x:B(t,n.x,e.x),y:B(t,n.y,e.y)}},u:function(t,n){return function(e){var r=n(e);t.setAttribute("rx",ft(r.x)),t.setAttribute("ry",ft(r.y))}}},gt={f:null,i:function(t,n,e){return 0===t?n:1===t?e:{width:B(t,n.width,e.width),height:B(t,n.height,e.height)}},u:function(t,n){return function(e){var r=n(e);t.setAttribute("width",ft(r.width)),t.setAttribute("height",ft(r.height))}}};Object.freeze({M:2,L:2,Z:0,H:1,V:1,C:6,Q:4,T:2,S:4,A:7});var dt={},pt=null;function mt(t){var n=function(){if(pt)return pt;if("object"!==("undefined"==typeof document?"undefined":e(document))||!document.createElementNS)return{};var t=document.createElementNS("http://www.w3.org/2000/svg","svg");return t&&t.style?(t.style.position="absolute",t.style.opacity="0.01",t.style.zIndex="-9999",t.style.left="-9999px",t.style.width="1px",t.style.height="1px",pt={svg:t}):{}}().svg;if(!n)return function(t){return null};var r=document.createElementNS(n.namespaceURI,"path");r.setAttributeNS(null,"d",t),r.setAttributeNS(null,"fill","none"),r.setAttributeNS(null,"stroke","none"),n.appendChild(r);var i=r.getTotalLength();return function(t){var n=r.getPointAtLength(i*t);return{x:n.x,y:n.y}}}function bt(t){return dt[t]?dt[t]:dt[t]=mt(t)}function wt(t,n,e,r){if(!t||!r)return!1;var i=["M",t.x,t.y];if(n&&e&&(i.push("C"),i.push(n.x),i.push(n.y),i.push(e.x),i.push(e.y)),n?!e:e){var u=n||e;i.push("Q"),i.push(u.x),i.push(u.y)}return n||e||i.push("L"),i.push(r.x),i.push(r.y),i.join(" ")}function xt(t,n,e,r){var i=arguments.length>4&&void 0!==arguments[4]?arguments[4]:1,u=wt(t,n,e,r),o=bt(u);try{return o(i)}catch(t){return null}}function At(t,n,e){return t+(n-t)*e}function kt(t,n,e){var r=arguments.length>3&&void 0!==arguments[3]&&arguments[3],i={x:At(t.x,n.x,e),y:At(t.y,n.y,e)};return r&&(i.a=_t(t,n)),i}function _t(t,n){return Math.atan2(n.y-t.y,n.x-t.x)}function St(t,n,e,r){var i=1-r;return i*i*t+2*i*r*n+r*r*e}function Ot(t,n,e,r){return 2*(1-r)*(n-t)+2*r*(e-n)}function jt(t,n,e,r){var i=arguments.length>4&&void 0!==arguments[4]&&arguments[4],u=xt(t,n,null,e,r);return u||(u={x:St(t.x,n.x,e.x,r),y:St(t.y,n.y,e.y,r)}),i&&(u.a=Mt(t,n,e,r)),u}function Mt(t,n,e,r){return Math.atan2(Ot(t.y,n.y,e.y,r),Ot(t.x,n.x,e.x,r))}function Pt(t,n,e,r,i){var u=i*i;return i*u*(r-t+3*(n-e))+3*u*(t+e-2*n)+3*i*(n-t)+t}function Et(t,n,e,r,i){var u=1-i;return 3*(u*u*(n-t)+2*u*i*(e-n)+i*i*(r-e))}function It(t,n,e,r,i){var u=arguments.length>5&&void 0!==arguments[5]&&arguments[5],o=xt(t,n,e,r,i);return o||(o={x:Pt(t.x,n.x,e.x,r.x,i),y:Pt(t.y,n.y,e.y,r.y,i)}),u&&(o.a=Rt(t,n,e,r,i)),o}function Rt(t,n,e,r,i){return Math.atan2(Et(t.y,n.y,e.y,r.y,i),Et(t.x,n.x,e.x,r.x,i))}function Ft(t,n,e){var r=arguments.length>3&&void 0!==arguments[3]&&arguments[3];if(Tt(n)){if(qt(e))return jt(n,e.start,e,t,r)}else if(Tt(e)){if(n.end)return jt(n,n.end,e,t,r)}else{if(n.end)return e.start?It(n,n.end,e.start,e,t,r):jt(n,n.end,e,t,r);if(e.start)return jt(n,e.start,e,t,r)}return kt(n,e,t,r)}function Nt(t,n,e){var r=Ft(t,n,e,!0);return r.a=function(t){return arguments.length>1&&void 0!==arguments[1]&&arguments[1]?t+Math.PI:t}(r.a)/m,r}function Tt(t){return!t.type||"corner"===t.type}function qt(t){return null!=t.start&&!Tt(t)}var Bt=new N;var Lt={f:ft,i:q},Ct={f:ft,i:L};function Dt(t,n,e){return t.map((function(t){return function(t,n,e){var r=t.v;if(!r||"g"!==r.t||r.s||!r.v||!r.r)return t;var i=e.getElementById(r.r),u=i&&i.querySelectorAll("stop")||[];return r.s=r.v.map((function(t,n){var e=u[n]&&u[n].getAttribute("offset");return{c:t,o:e=d(parseInt(e)/100)}})),delete r.v,t}(t,0,e)}))}var zt={gt:"gradientTransform",c:{x:"cx",y:"cy"},rd:"r",f:{x:"x1",y:"y1"},to:{x:"x2",y:"y2"}};function Vt(t,n,r,i,u,o,a,l){return Dt(t,0,l),n=function(t,n,e){for(var r,i,u,o=t.length-1,a={},l=0;l<=o;l++)(r=t[l]).e&&(r.e=n(r.e)),r.v&&"g"===(i=r.v).t&&i.r&&(u=e.getElementById(i.r))&&(a[i.r]={e:u,s:u.querySelectorAll("stop")});return a}(t,i,l),function(i){var u=r(i,t,Gt);if(!u)return"none";if("c"===u.t)return ht(u.v);if("g"===u.t){if(!n[u.r])return vt(u.r);var o=n[u.r];return function(t,n){for(var e=t.s,r=e.length;r<n.length;r++){var i=e[e.length-1].cloneNode();i.id=Ut(i.id),t.e.appendChild(i),e=t.s=t.e.querySelectorAll("stop")}for(var u=0,o=e.length,a=n.length-1;u<o;u++)e[u].setAttribute("stop-color",ht(n[Math.min(u,a)].c)),e[u].setAttribute("offset",n[Math.min(u,a)].o)}(o,u.s),Object.keys(zt).forEach((function(t){if(void 0!==u[t])if("object"!==e(zt[t])){var n,r="gt"===t?(n=u[t],Array.isArray(n)?"matrix("+n.join(" ")+")":""):u[t],i=zt[t];o.e.setAttribute(i,r)}else Object.keys(zt[t]).forEach((function(n){if(void 0!==u[t][n]){var e=u[t][n],r=zt[t][n];o.e.setAttribute(r,e)}}))})),vt(u.r)}return"none"}}function Gt(t,e,r){if(0===t)return e;if(1===t)return r;if(e&&r){var i=e.t;if(i===r.t)switch(e.t){case"c":return{t:i,v:z(t,e.v,r.v)};case"g":if(e.r===r.r){var u={t:i,s:Yt(t,e.s,r.s),r:e.r};return e.gt&&r.gt&&(u.gt=function(t,n,e){var r=n.length;if(r!==e.length)return T(t,n,e);for(var i=new Array(r),u=0;u<r;u++)i[u]=q(t,n[u],e[u]);return i}(t,e.gt,r.gt)),e.c?(u.c=C(t,e.c,r.c),u.rd=B(t,e.rd,r.rd)):e.f&&(u.f=C(t,e.f,r.f),u.to=C(t,e.to,r.to)),u}}if("c"===e.t&&"g"===r.t||"c"===r.t&&"g"===e.t){var o="c"===e.t?e:r,a="g"===e.t?n({},e):n({},r),l=a.s.map((function(t){return{c:o.v,o:t.o}}));return a.s="c"===e.t?Yt(t,l,a.s):Yt(t,a.s,l),a}}return T(t,e,r)}function Yt(t,n,e){if(n.length===e.length)return n.map((function(n,r){return $t(t,n,e[r])}));for(var r=Math.max(n.length,e.length),i=[],u=0;u<r;u++){var o=$t(t,n[Math.min(u,n.length-1)],e[Math.min(u,e.length-1)]);i.push(o)}return i}function $t(t,n,e){return{o:L(t,n.o,e.o||0),c:z(t,n.c,e.c||{})}}function Ut(t){return t.replace(/-fill-([0-9]+)$/,(function(t,n){return"-fill-"+(+n+1)}))}var Qt={fill:Vt,"fill-opacity":Ct,stroke:Vt,"stroke-opacity":Ct,"stroke-width":Lt,"stroke-dashoffset":{f:ft,i:q},"stroke-dasharray":{f:function(t){var n=arguments.length>1&&void 0!==arguments[1]?arguments[1]:" ";return t&&t.length>0&&(t=t.map((function(t){return d(t,4)}))),ct(t,n)},i:function(t,n,e){var r,i,u,o=n.length,a=e.length;if(o!==a)if(0===o)n=V(o=a,0);else if(0===a)a=o,e=V(o,0);else{var l=(u=(r=o)*(i=a)/function(t,n){for(var e;n;)e=n,n=t%n,t=e;return t||1}(r,i))<0?-u:u;n=G(n,Math.floor(l/o)),e=G(e,Math.floor(l/a)),o=a=l}for(var s=[],f=0;f<o;f++)s.push(d(B(t,n[f],e[f])));return s}},opacity:Ct,transform:function(t,n,r,i){if(!(t=function(t,n){if(!t||"object"!==e(t))return null;var r=!1;for(var i in t)t.hasOwnProperty(i)&&(t[i]&&t[i].length?(t[i].forEach((function(t){t.e&&(t.e=n(t.e))})),r=!0):delete t[i]);return r?t:null}(t,i)))return null;var u=function(e,i,u){var o=arguments.length>3&&void 0!==arguments[3]?arguments[3]:null;return t[e]?r(i,t[e],u):n&&n[e]?n[e]:o};return n&&n.a&&t.o?function(n){var e=r(n,t.o,Nt);return Bt.recomposeSelf(e,u("r",n,q,0)+e.a,u("k",n,C),u("s",n,C),u("t",n,C)).toString()}:function(t){return Bt.recomposeSelf(u("o",t,Ft,null),u("r",t,q,0),u("k",t,C),u("s",t,C),u("t",t,C)).toString()}},r:Lt,"#size":gt,"#radius":yt,_:function(t,n){if(Array.isArray(t))for(var e=0;e<t.length;e++)this[t[e]]=n;else this[t]=n}},Ht=function(t){!function(t,n){if("function"!=typeof n&&null!==n)throw new TypeError("Super expression must either be null or a function");t.prototype=Object.create(n&&n.prototype,{constructor:{value:t,writable:!0,configurable:!0}}),n&&l(t,n)}(o,t);var n,e,i=(n=o,e=s(),function(){var t,r=a(n);if(e){var i=a(this).constructor;t=Reflect.construct(r,arguments,i)}else t=r.apply(this,arguments);return c(this,t)});function o(){return r(this,o),i.apply(this,arguments)}return u(o,null,[{key:"build",value:function(t){var n=h(a(o),"build",this).call(this,t,Qt);if(!n)return null;n.el,n.options,function(t,n,e){t.play()}(n.player)}}]),o}(st);return Ht.init(),Ht}));
(function(s,i,o,w,a,b){w[o]=w[o]||{};w[o][s]=w[o][s]||[];w[o][s].push(i);})('5c7f360c',{"root":"eJCo5xipL9f1","version":"2022-05-04","animations":[{"elements":{"eJCo5xipL9f9":{"transform":{"data":{"t":{"x":-74.359295,"y":-52.819744}},"keys":{"o":[{"t":0,"v":{"x":87.998577,"y":44.717443,"type":"corner"},"e":[0.25,1,0.25,1]},{"t":200,"v":{"x":84.32494,"y":50.055,"type":"corner"},"e":[0.25,1,0.25,1]},{"t":300,"v":{"x":84.32494,"y":50.055,"type":"corner"},"e":[0.25,1,0.25,1]},{"t":400,"v":{"x":78.816509,"y":54.426687,"type":"corner"},"e":[0.25,1,0.25,1]},{"t":600,"v":{"x":70.768905,"y":56.191448,"type":"corner"}}],"s":[{"t":0,"v":{"x":0.224136,"y":0.224136},"e":[0.25,1,0.25,1]},{"t":200,"v":{"x":0.429727,"y":0.389795},"e":[0.25,1,0.25,1]},{"t":300,"v":{"x":0.816548,"y":0.74067},"e":[0.25,1,0.25,1]},{"t":400,"v":{"x":0.87368,"y":0.792493},"e":[0.25,1,0.25,1]},{"t":600,"v":{"x":0.995207,"y":0.902731}}]}}},"eJCo5xipL9f15":{"transform":{"keys":{"o":[{"t":0,"v":{"x":118.7295,"y":15.63,"type":"cusp","end":{"x":127.800248,"y":12.29135}},"e":[0.25,1,0.25,1]},{"t":200,"v":{"x":148.247185,"y":22.479,"type":"cusp","start":{"x":142.494525,"y":15.896638},"end":{"x":153.96902,"y":25.122399}},"e":[0.25,1,0.25,1]},{"t":400,"v":{"x":157.634004,"y":39.2045,"type":"cusp","start":{"x":157.633,"y":33.964},"end":{"x":159.775706,"y":50.734538}},"e":[0.25,1,0.25,1]},{"t":600,"v":{"x":146.916,"y":67.377,"type":"cusp","start":{"x":152.097635,"y":59.80777}}}],"s":[{"t":0,"v":{"x":0.447442,"y":0.447442},"e":[0.25,1,0.25,1]},{"t":200,"v":{"x":0.616941,"y":0.616941},"e":[0.25,1,0.25,1]},{"t":400,"v":{"x":0.815057,"y":0.815057},"e":[0.25,1,0.25,1]},{"t":600,"v":{"x":0.942037,"y":0.942037}}]}}},"eJCo5xipL9f17":{"transform":{"data":{"t":{"x":-36.189001,"y":-29.479999}},"keys":{"o":[{"t":0,"v":{"x":85.656,"y":65.283707,"type":"cusp","end":{"x":76.347965,"y":64.859572}},"e":[0.25,1,0.25,1]},{"t":200,"v":{"x":58.146,"y":78.009293,"type":"cusp","start":{"x":62.658751,"y":71.316344},"end":{"x":42.609831,"y":97.541395}},"e":[0.25,1,0.25,1]},{"t":400,"v":{"x":19.872034,"y":90.190126,"type":"cusp","start":{"x":25.772049,"y":94.679518},"end":{"x":-17.643537,"y":68.953315}},"e":[0.25,1,0.25,1]},{"t":600,"v":{"x":36.002129,"y":31.570628,"type":"cusp","start":{"x":8.768452,"y":43.202786}},"e":[0.42,0,0.58,1]}],"r":[{"t":0,"v":-181.735395,"e":[0.25,1,0.25,1]},{"t":200,"v":-136.435965,"e":[0.25,1,0.25,1]},{"t":400,"v":-73.886744,"e":[0.25,1,0.25,1]},{"t":600,"v":4.019761}],"s":[{"t":0,"v":{"x":0.528658,"y":0.528658},"e":[0.25,1,0.25,1]},{"t":200,"v":{"x":0.65018,"y":0.66322},"e":[0.25,1,0.25,1]},{"t":400,"v":{"x":0.84407,"y":0.829291},"e":[0.25,1,0.25,1]},{"t":600,"v":{"x":0.97156,"y":0.975339},"e":[0.42,0,0.58,1]}]}}}},"s":"MKDA1MmI4NWZhMWIyYWMY5ZWIxYTZhY2FiNWYM3NzczNmQ2ZDY5NWZhMMWE2YWZhMmEwYjFFYCTZhY2FiNWY3NzZlNjXlENWZZYTZiMWEyYWYD5ZWIxVmE2YWNhYmIwGNWY3NzZlNjk1ZmEzYETZhOURhOTVmNzc2ZTFY5NWY5ZWE5YjFhMmFFmYWI5ZWIxYTI1Zjc3MYTM5ZUxhOWIwYTI2ORTVmYjBhZGEyYTJhMTUVmNzc2ZWJh"}],"options":"MHDAxMDg4MmY4MDgxNmVU3ZjgxMmY0NzJmNzkN3YzZlNzEyZjhh"},'__SVGATOR_PLAYER__',window)]]></script></svg>